<svg id="Layer_1" data-name="Layer 1" xmlns="http://www.w3.org/2000/svg" viewBox="0 0 79.2 69.48"><path d="M25.72,50.48c8.05-2.84,14.85-4.37,15.19-3.42s-5.93,4-14,6.85a67.79,67.79,0,0,1-15.18,3.43A67.59,67.59,0,0,1,25.72,50.48Z"/><path d="M21.2,41.3C32.61,43.24,41.61,46.24,41.31,48s-9.79,1.64-21.2-.3A70.83,70.83,0,0,1,0,41,71.12,71.12,0,0,1,21.2,41.3Z"/><path d="M25.89,28.07C36,37,42.89,45.8,41.21,47.69S30,43.88,19.83,34.94A70.53,70.53,0,0,1,4.51,15.32,70.32,70.32,0,0,1,25.89,28.07Z"/><path d="M53.47,50.48c-8-2.84-14.84-4.37-15.18-3.42s5.92,4,14,6.85a67.93,67.93,0,0,0,15.19,3.43A67.52,67.52,0,0,0,53.47,50.48Z"/><path d="M58,41.3C46.59,43.24,37.58,46.24,37.88,48s9.8,1.64,21.2-.3A71,71,0,0,0,79.2,41,71.19,71.19,0,0,0,58,41.3Z"/><path d="M53.3,28.07C43.17,37,36.31,45.8,38,47.69s11.25-3.81,21.38-12.75A70.3,70.3,0,0,0,74.68,15.32,70.45,70.45,0,0,0,53.3,28.07Z"/><path d="M43.42,24.47c0,13.51-1.72,24.47-3.85,24.47s-3.85-11-3.85-24.47A82,82,0,0,1,39.57,0,82,82,0,0,1,43.42,24.47Z"/><path d="M44,69.35l-3.12-2.61a.61.61,0,0,1-.18-.27c-1.16-3.66-.53-1.64-1.46-4.83a.5.5,0,0,1,0-.12L37.88,42.79a1.28,1.28,0,0,1,1.28-1.28h0a1.29,1.29,0,0,1,1.28,1.28l2.53,18c0,.53,1.54,5.56,2,8A.58.58,0,0,1,44,69.35Z"/></svg>