<svg id="Layer_1" data-name="Layer 1" xmlns="http://www.w3.org/2000/svg" xmlns:xlink="http://www.w3.org/1999/xlink" viewBox="0 0 250.33 62.48"><defs><clipPath id="clip-path"><rect width="250.33" height="62.48" style="fill:none"/></clipPath></defs><g style="clip-path:url(#clip-path)"><path d="M17.89,0H28V49.16H17.74V45h-.16q-3.42,5.3-7.62,5.29A8.25,8.25,0,0,1,2.8,45.59,24.61,24.61,0,0,1,0,33.14,24,24,0,0,1,2.8,20.69,8.38,8.38,0,0,1,10.11,16q4.2,0,7.63,4.82Zm0,33q0-7.93-3.89-7.93T10,33.45A13,13,0,0,0,11,39.21a3.29,3.29,0,0,0,3,2,3.11,3.11,0,0,0,2.8-2.18,15,15,0,0,0,1.09-6.22" style="fill:#1a1818"/><path d="M84.79,49.32V44.81c-2,2.9-4.31,4.35-7,4.35a9.18,9.18,0,0,1-8.09-4.35q-2.81-4.37-2.8-12.29a22.63,22.63,0,0,1,2.8-12.14,8.57,8.57,0,0,1,14.94,0h.15V17.12H94.9V46.83a20.69,20.69,0,0,1-1.4,7.78,11.32,11.32,0,0,1-5.13,5.76,15.89,15.89,0,0,1-8.09,2A15.62,15.62,0,0,1,72,60.06a11.36,11.36,0,0,1-5-7.78h9A4.52,4.52,0,0,0,80,54.77a4.37,4.37,0,0,0,3.42-1.56,5.61,5.61,0,0,0,1.4-3.89m0-16.8q0-7.79-3.89-7.78a3.42,3.42,0,0,0-3.11,1.87A10.2,10.2,0,0,0,76.7,31.9q0,8.87,4,8.86t4-8.09" style="fill:#1a1818"/><path d="M102.53,0h10.11V21.32h.16q3.74-5.14,8.55-5.14a6.71,6.71,0,0,1,5.45,2.33,9.66,9.66,0,0,1,1.87,6.38V49.16h-10V29.56a5.09,5.09,0,0,0-.78-3,2.34,2.34,0,0,0-2-1.09q-3.12,0-3.12,4.36V49.16H102.53Z" style="fill:#1a1818"/><path d="M148.58,5.13c.47,0,1.4,10.89,1.87,10.89h.62a13.87,13.87,0,0,1,3.42.94c.47.16,6.07-8.4,6.54-8.25s-4.2,9.49-3.74,10L159,20.38l.78,1.09c.31.47,10.27-4.82,9.8-4.36s-8.4,7-8.24,7.63a21.45,21.45,0,0,1,.77,3.26c0,.47,8.72.16,10.12.47s-9.8,1.87-9.65,2.34a9.84,9.84,0,0,1,0,2.17v1.25c0,.31,7.47,1.4,8.87,2s-9,.78-9.18,1.25a19.83,19.83,0,0,1-.62,3c-.16.63,5.91,4.67,7.16,5.45s-8.25-2.8-8.56-2.34l-1.4,1.87-.31.47c-.47.47,3.42,7,4.2,8.09s-6.53-6.22-7-5.91a11.42,11.42,0,0,1-5.44,1.71c-.47,0-1.56,7.31-1.72,7.78s-1.55-7.78-1.86-7.78a11.77,11.77,0,0,1-4.36-1.09c-.62-.31-5.44,4.82-6.22,5.13s3.73-7,3.27-7.46l-1.1-1.1a14.58,14.58,0,0,1-1.71-2.48c-.31-.47-7.93,2.33-8.87,2.33s7.78-4.67,7.63-5.45a20.78,20.78,0,0,1-.62-3.42c0-.62-8.87-.31-8.87-.93s8.87-1.56,8.87-1.87V32.36c0-.31.15-1.87.15-2.8s-9.8-4.2-9-4.2,9.8.78,10,.16a15.7,15.7,0,0,1,2.48-4.83l.47-.62c.47-.62-5.91-9.49-5.29-10s8.09,7.46,8.71,7.15a12.89,12.89,0,0,1,3.58-1.09h1.09c.62,0,1.4-10.89,1.87-10.89m-.16,36.1a3.26,3.26,0,0,0,3-1.87,14.26,14.26,0,0,0,.93-6.37,14,14,0,0,0-.93-6.23,3.12,3.12,0,0,0-3-1.71,3.25,3.25,0,0,0-3,1.71,13.7,13.7,0,0,0-1.09,6.38c0,5.4,1.29,8.09,3.89,8.09" style="fill:#1a1818"/><path d="M168.5,17.11h10.11v20.7a4.52,4.52,0,0,0,.78,2.64,2.32,2.32,0,0,0,2,1.09q3,0,3-4.35V17.11h10.11V35.78q0,7.17-3.27,10.9a12.12,12.12,0,0,1-9.64,3.73q-7,0-10.12-3.89a14.82,14.82,0,0,1-3.11-9.65Z" style="fill:#1a1818"/><path d="M200.55,38.9Q205.68,42,208,42a3.33,3.33,0,0,0,2-.62,1.88,1.88,0,0,0,.78-1.56,1.57,1.57,0,0,0-.63-1.4l-5.13-2.65a12.61,12.61,0,0,1-5.29-3.73,8.88,8.88,0,0,1-1.56-5.44A10.12,10.12,0,0,1,201.48,19,11.51,11.51,0,0,1,209.57,16q4.83,0,11.83,3.89l-3.89,7.15a15.47,15.47,0,0,0-7.47-2.8c-1.66,0-2.49.68-2.49,2a2,2,0,0,0,.93,1.71,13,13,0,0,0,3.42,1.55,16.49,16.49,0,0,1,6.69,3.89,7.92,7.92,0,0,1,2,5.6,10.61,10.61,0,0,1-3.27,8.09,11.6,11.6,0,0,1-8.4,3.11,22.61,22.61,0,0,1-11.82-3.89Z" style="fill:#1a1818"/><path d="M240.84,39.36h8.56q-2.49,10.89-12.29,10.89a11.5,11.5,0,0,1-9.65-4.66q-3.57-4.67-3.57-12.76a19.46,19.46,0,0,1,3.57-12.29A11.36,11.36,0,0,1,237,15.87a12.16,12.16,0,0,1,6.85,2.18A12.69,12.69,0,0,1,248.62,24a34.82,34.82,0,0,1,1.71,11.51h-17q.16,7.16,4,7.16a3.27,3.27,0,0,0,2.33-.94A4,4,0,0,0,241,39.2m-7.31-9.33H241a12.16,12.16,0,0,0-.94-5,2.8,2.8,0,0,0-2.64-1.56,3.12,3.12,0,0,0-3,1.56,10.9,10.9,0,0,0-.93,5.13" style="fill:#1a1818"/><path d="M49.48,6.69c.46,0,1.4,10.89,1.86,10.89H52a13.62,13.62,0,0,1,3.43.93c.46.16,6.07-8.4,6.53-8.24s-4.2,9.49-3.73,10l1.71,1.72L60.68,23c.31.46,10.26-4.83,9.8-4.36s-8.4,7-8.25,7.62A20.47,20.47,0,0,1,63,29.56c.15.47,8.71.16,10.11.47s-9.8,1.86-9.65,2.49a9.84,9.84,0,0,1,0,2.17v1.25c0,.31,7.47,1.4,8.87,2s-9,.78-9.18,1.25a19.57,19.57,0,0,1-.62,2.95c-.15.63,5.91,4.67,7.16,5.45s-8.25-2.8-8.56-2.34l-1.4,1.87-.31.47c-.47.47,3.42,7,4.2,8.09s-6.53-6.22-7-5.91a11.42,11.42,0,0,1-5.44,1.71c-.47,0-1.56,7.31-1.71,7.78s-1.56-7.78-1.87-7.78a11.67,11.67,0,0,1-4.35-1.09c-.63-.31-5.45,4.82-6.23,5.13s3.74-7,3.27-7.46L39.21,47A14.1,14.1,0,0,1,37.5,44.5c-.32-.47-7.94,2.33-8.87,2.33s7.62-5.29,7.47-5.91a21.91,21.91,0,0,1-.63-3.42c0-.62-8.86-.31-8.86-.93S35.47,35,35.47,34.7V33.61c0-.32.16-1.87.16-2.8s-9.8-4.2-9-4.2,9.8.77,10,.15a15.75,15.75,0,0,1,2.34-4.51l.46-.62c.47-.62-5.91-9.49-5.29-10s8.09,7.47,8.72,7.16a12.41,12.41,0,0,1,3.57-1.09h1.09c.63,0,1.4-10.89,1.87-10.89M49.17,43a3.27,3.27,0,0,0,2.95-1.87,14.32,14.32,0,0,0,.93-6.38,13.91,13.91,0,0,0-.93-6.22,3.12,3.12,0,0,0-3-1.71,3.26,3.26,0,0,0-2.95,1.71,13.7,13.7,0,0,0-1.09,6.38q0,8.09,3.89,8.09" style="fill:#1a1818"/></g></svg>