<svg id="Layer_1" data-name="Layer 1" xmlns="http://www.w3.org/2000/svg" viewBox="0 0 800 800"><g style="opacity:0.54"><path d="M605.47,102.82c-10.76,15.91-30.84,20.75-46.92,12.15a25.12,25.12,0,0,1-3.84,8L429.11,309a30.75,30.75,0,0,1-19.81,13,29.31,29.31,0,0,1-22.74-5.49c-13.7-10.31-16.9-30.45-7.13-44.89L504.53,86.32a36.94,36.94,0,0,1-7.19-4.13c-16.72-12.58-20.62-37.12-8.7-54.75s35.18-21.73,51.9-9.14a39.34,39.34,0,0,1,15.33,28.35,35,35,0,0,1,40.9,1.42C613.49,60.65,617.38,85.19,605.47,102.82Z" style="fill:#fbbc81"/><path d="M492.39,632.53c-.06,11.93-41.12,21.68-103.79,21.3-62.51-.39-113.2-10.38-113.14-22.31.05-10.57,39.69-19.15,92-20.65a8.8,8.8,0,0,0,8.39-8.88l1.18-232.21a9.23,9.23,0,0,0-2.61-6.52L230.3,216.54c-5.54-5.63-1.73-15.51,6-15.46L545.65,203c7.7.05,11.4,10,5.81,15.54L405.86,363.29a9.24,9.24,0,0,0-2.68,6.49L402,602.17a8.84,8.84,0,0,0,8.29,9C462.61,613.42,492.45,622,492.39,632.53Z" style="fill:#fbbc81"/></g><g style="opacity:0.54"><path d="M78.62,669.71v22.62q-15-9-26.36-9.05t-18.09,7.78q-6.78,7.77-6.78,20.91,0,12.45,7.14,19.9t19.08,7.46q10.45,0,25-8.42v22.48q-16.32,5.45-27.2,5.44a42.24,42.24,0,0,1-31.81-13.75Q6.55,731.34,6.54,711.55q0-20.14,13.32-34.1a43.12,43.12,0,0,1,32.4-14Q64.56,663.49,78.62,669.71Z" style="fill:#fbbc81"/><path d="M91.2,727.31q0-14.05,9-23t23-8.9a29.46,29.46,0,0,1,21.94,9.08Q154,713.6,154,727q0,13.71-8.87,22.75t-22.22,9.05q-15.06,0-23.4-9.58A32.43,32.43,0,0,1,91.2,727.31Zm45,0a15.75,15.75,0,0,0-4-10.74,12.19,12.19,0,0,0-9.4-4.6,12.7,12.7,0,0,0-9.61,4.32,14.59,14.59,0,0,0-4,10.31,16.46,16.46,0,0,0,4,11.17,12.26,12.26,0,0,0,19,.11A15.31,15.31,0,0,0,136.22,727.31Z" style="fill:#fbbc81"/><path d="M188.73,696.78v9.68a30.2,30.2,0,0,0,3.75-3.25,44.23,44.23,0,0,1,4.77-4.06,21.52,21.52,0,0,1,11.34-3.71,17.87,17.87,0,0,1,9,2.93q4.88,2.94,8.12,10.43,5.66-7.21,11.06-10.29a20.58,20.58,0,0,1,10.07-3.07q8.28,0,14,6.82T266.61,719v38.52H248.52V723.85a13,13,0,0,0-2.76-8.45,8.28,8.28,0,0,0-6.64-3.43,10.38,10.38,0,0,0-8.06,3.89,13.62,13.62,0,0,0-3.39,9.26v32.44H209.72V724.7a14.23,14.23,0,0,0-2.79-8.94,8.27,8.27,0,0,0-6.75-3.64,10.27,10.27,0,0,0-8.06,4,14.3,14.3,0,0,0-3.39,9.58v31.87H170.5V696.78Z" style="fill:#fbbc81"/><path d="M282.79,674.27a11.37,11.37,0,1,1,3.33,8A10.85,10.85,0,0,1,282.79,674.27Zm2.34,22.51h18.09v60.78H285.13Z" style="fill:#fbbc81"/><path d="M341.38,696.78V704q9.25-8.7,19.44-8.69a17.67,17.67,0,0,1,14.38,7.13q5.69,7.14,5.69,18.24v36.89H362.51v-34a13.75,13.75,0,0,0-2.86-8.84,8.62,8.62,0,0,0-7-3.6,9.58,9.58,0,0,0-8.13,4.55q-3.18,4.56-3.18,11.77v30.11H323.29V696.78Z" style="fill:#fbbc81"/><path d="M439.19,754.1V747q-8.13,10.32-18.8,10.31a24.27,24.27,0,0,1-19.11-8.83q-7.68-8.84-7.67-22.12a31.91,31.91,0,0,1,7.95-21.87q7.95-9,19.12-9,9.46,0,18.51,9.89v-8.41h17.95v61.49q0,5.08-3.21,11.69a19.89,19.89,0,0,1-11,9.75A47.25,47.25,0,0,1,425.06,783q-12.66,0-20.25-4.73T393.89,762h20.28q5.94,8.26,12.87,8.27a10.51,10.51,0,0,0,8.76-4.49Q439.19,761.31,439.19,754.1ZM412.9,726.82q0,4.66,4.06,9.08a12.56,12.56,0,0,0,9.51,4.41,11.8,11.8,0,0,0,9.08-4.2,16.12,16.12,0,0,0,.18-20.53,11.85,11.85,0,0,0-9.26-4,12.67,12.67,0,0,0-9.65,4.21Q412.91,720,412.9,726.82Z" style="fill:#fbbc81"/><path d="M566.68,673.18l-12.44,13.64q-9.82-5.8-14.13-5.8a7.65,7.65,0,0,0-5.72,2.51,8.3,8.3,0,0,0-2.41,6q0,6.86,12.44,11.87a85.74,85.74,0,0,1,13.78,7,25.14,25.14,0,0,1,7.81,8.72,24.21,24.21,0,0,1,3.15,12.09q0,11.94-9.65,20.78a32.62,32.62,0,0,1-22.79,8.83q-14.41,0-28.48-13.57l13.14-15.33q8.83,9.11,16.54,9.11a10,10,0,0,0,6.92-3.2q3.33-3.21,3.33-6.74,0-7.26-15.34-12.8-8.76-3.19-12.44-6a21.33,21.33,0,0,1-6.18-8.12,25.47,25.47,0,0,1-2.51-10.92q0-12.37,8.06-20.07t21.06-7.71Q556.23,663.49,566.68,673.18Z" style="fill:#fbbc81"/><path d="M581,727.31q0-14.05,9-23t23-8.9a29.48,29.48,0,0,1,22,9.08q8.87,9.08,8.87,22.51,0,13.71-8.87,22.75t-22.23,9.05q-15.06,0-23.39-9.58A32.43,32.43,0,0,1,581,727.31Zm45,0a15.8,15.8,0,0,0-4-10.74,12.2,12.2,0,0,0-9.4-4.6,12.69,12.69,0,0,0-9.61,4.32,14.55,14.55,0,0,0-4,10.31,16.45,16.45,0,0,0,4,11.17,12.27,12.27,0,0,0,19,.11A15.36,15.36,0,0,0,626.05,727.31Z" style="fill:#fbbc81"/><path d="M657.85,727.31q0-14.05,9-23t23-8.9a29.48,29.48,0,0,1,21.95,9.08q8.87,9.08,8.87,22.51,0,13.71-8.87,22.75t-22.23,9.05q-15.06,0-23.39-9.58A32.43,32.43,0,0,1,657.85,727.31Zm45,0a15.8,15.8,0,0,0-4-10.74,12.2,12.2,0,0,0-9.4-4.6,12.69,12.69,0,0,0-9.61,4.32,14.55,14.55,0,0,0-4,10.31,16.45,16.45,0,0,0,4,11.17,12.27,12.27,0,0,0,19.05.11A15.36,15.36,0,0,0,702.87,727.31Z" style="fill:#fbbc81"/><path d="M755.8,696.78V704q9.26-8.7,19.43-8.69a17.64,17.64,0,0,1,14.38,7.13q5.7,7.14,5.69,18.24v36.89H776.93v-34a13.75,13.75,0,0,0-2.86-8.84,8.62,8.62,0,0,0-7-3.6,9.58,9.58,0,0,0-8.13,4.55q-3.18,4.56-3.18,11.77v30.11H737.71V696.78Z" style="fill:#fbbc81"/></g></svg>