<svg id="Layer_1" data-name="Layer 1" xmlns="http://www.w3.org/2000/svg" viewBox="0 0 767 948"><path d="M716.89,230.18A91.39,91.39,0,0,1,603,264.38a57,57,0,0,1-8.5,19.14l-4.6,7.21c-1,1.86-2,3.69-3.19,5.49L300.94,743.76A91.51,91.51,0,1,1,179.4,842.65c-29,20.61-68.8,22.26-100.72,1.83a91.42,91.42,0,0,1,86.09-160.71,56.69,56.69,0,0,1,8.49-19.15l4.6-7.21q1.47-2.79,3.2-5.49L466.78,204.39a90.56,90.56,0,0,1-18.16-8.72A91.59,91.59,0,1,1,547.3,41.35a90.52,90.52,0,0,1,41,64.15c29-20.62,68.78-22.26,100.72-1.84A91.68,91.68,0,0,1,716.89,230.18Z" style="fill:#fcffdf;stroke:#231f20;stroke-miterlimit:10;stroke-width:35px"/></svg>