<svg id="Layer_1" data-name="Layer 1" xmlns="http://www.w3.org/2000/svg" viewBox="0 0 39.11 69.05"><path d="M22.29.2A17.55,17.55,0,0,0,19.56,0a17.77,17.77,0,0,0-2.74.2,19.55,19.55,0,0,0,0,38.71,17.77,17.77,0,0,0,2.74.2,17.55,17.55,0,0,0,2.73-.2A19.55,19.55,0,0,0,22.29.2Zm0,33.76a14.52,14.52,0,0,1-5.47,0A14.67,14.67,0,0,1,19.56,4.89a14.44,14.44,0,0,1,2.73.26,14.66,14.66,0,0,1,0,28.81Z"/><path d="M19.56,34.44a17.44,17.44,0,0,0,2.73-.22V69.05H16.82V34.22A17.57,17.57,0,0,0,19.56,34.44Z"/><path d="M34,54.38a20.15,20.15,0,0,0,.18,2.72H4.89V51.64H34.22A20.45,20.45,0,0,0,34,54.38Z"/></svg>