<svg id="Layer_1" data-name="Layer 1" xmlns="http://www.w3.org/2000/svg" viewBox="0 0 99.49 62.98"><path d="M40.15,59.43a2.14,2.14,0,0,1,.36,2.93,1.67,1.67,0,0,1-.55.35,3,3,0,0,1-1.26.1l-3.78-.23A6.42,6.42,0,0,1,32.1,62a5.52,5.52,0,0,1-2.16-3,18.66,18.66,0,0,1-1-3.88c-.25-1.9-1.42-.68-1.85.29a6.57,6.57,0,0,1-2.05,2.76,7.06,7.06,0,0,1,3.56,1,2.65,2.65,0,0,1,1,3.26,1.05,1.05,0,0,1-.42.44,1.39,1.39,0,0,1-.57.09q-6,.15-12.06,0a19.7,19.7,0,0,1-4.2-.43,7,7,0,0,1-3.63-2A5.9,5.9,0,0,1,7.52,58a7.78,7.78,0,0,1-.26-2.45c0-.42.07-.84.13-1.25a18,18,0,0,1,1.16-3.78,27.54,27.54,0,0,1,8.24-11.64A11.42,11.42,0,0,0,18.93,37a5.27,5.27,0,0,0,.26-2.94c4.09.81,11.79,1.86,15.64,2.36.14.32.28.65.4,1,1.63,4.39.84,9.33-.7,13.75a13.41,13.41,0,0,0-.77,2.7,3.75,3.75,0,0,0,.58,2.68,5.11,5.11,0,0,0,2.83,1.57A6.93,6.93,0,0,1,40.15,59.43Z"/><path d="M46.82,22.6a10.31,10.31,0,0,1-3.19,5.86c-2.6,2.18-6.3,2.32-9.51,3.45a1.25,1.25,0,0,0-.78.55,1.27,1.27,0,0,0,.1.95c.05.13.1.25.16.38a101.25,101.25,0,0,1-15-2.53l-.05-.1A9.68,9.68,0,0,1,17.74,25a11.71,11.71,0,0,1,.42-2.28h0a4.52,4.52,0,0,1,1.14-1.68c.64-.68,1.75-2.07,2.44-2.7s.94-.84,1.32-1.13a16.17,16.17,0,0,1,2.32-1.39,7.88,7.88,0,0,1,5.7-.88c2.18.6,3.81,2.39,5.79,3.49a9.91,9.91,0,0,0,3.74,1.21,18.72,18.72,0,0,1,3.52.43A4.88,4.88,0,0,1,46.82,22.6Z"/><path d="M17,7.39s-2.74,10.78,2,16.7,4.34-6.29,4.34-6.29Z"/><path d="M0,38.18s0,18.56,8.11,20S8.83,54,8.83,54,4,58.13,0,38.18Z"/><rect x="19.64" y="32.47" width="1.06" height="1.06" transform="translate(57.57 42.83) rotate(136.15)"/><rect x="22.46" y="32.91" width="1.06" height="1.06" transform="translate(62.73 41.63) rotate(136.15)"/><rect x="25.07" y="33.41" width="1.06" height="1.06" transform="translate(67.57 40.68) rotate(136.15)"/><rect x="27.79" y="33.86" width="1.06" height="1.06" transform="translate(72.57 39.57) rotate(136.15)"/><rect x="30.52" y="34.26" width="1.06" height="1.06" transform="translate(77.53 38.36) rotate(136.15)"/><rect x="33.27" y="34.63" width="1.06" height="1.06" transform="translate(82.52 37.1) rotate(136.15)"/><path d="M59.34,59.43A2.14,2.14,0,0,0,59,62.36a1.67,1.67,0,0,0,.55.35,3,3,0,0,0,1.26.1l3.78-.23A6.42,6.42,0,0,0,67.39,62a5.52,5.52,0,0,0,2.16-3,18.66,18.66,0,0,0,1-3.88c.25-1.9,1.42-.68,1.85.29a6.57,6.57,0,0,0,2,2.76,7.06,7.06,0,0,0-3.56,1,2.65,2.65,0,0,0-1,3.26,1.05,1.05,0,0,0,.42.44,1.39,1.39,0,0,0,.57.09q6,.15,12.06,0a19.7,19.7,0,0,0,4.2-.43,7,7,0,0,0,3.63-2A5.9,5.9,0,0,0,92,58a7.78,7.78,0,0,0,.26-2.45c0-.42-.07-.84-.13-1.25a18,18,0,0,0-1.16-3.78A27.54,27.54,0,0,0,82.7,38.92,11.42,11.42,0,0,1,80.56,37a5.27,5.27,0,0,1-.26-2.94c-4.09.81-11.79,1.86-15.64,2.36-.14.32-.28.65-.4,1-1.63,4.39-.84,9.33.7,13.75a13.41,13.41,0,0,1,.77,2.7,3.75,3.75,0,0,1-.58,2.68,5.11,5.11,0,0,1-2.83,1.57A6.93,6.93,0,0,0,59.34,59.43Z"/><path d="M52.67,22.6a10.31,10.31,0,0,0,3.19,5.86c2.6,2.18,6.3,2.32,9.51,3.45a1.25,1.25,0,0,1,.78.55,1.27,1.27,0,0,1-.1.95c0,.13-.1.25-.16.38a101.25,101.25,0,0,0,15-2.53l0-.1A9.68,9.68,0,0,0,81.75,25a11.71,11.71,0,0,0-.42-2.28h0a4.52,4.52,0,0,0-1.14-1.68c-.64-.68-1.75-2.07-2.44-2.7s-.94-.84-1.32-1.13a16.17,16.17,0,0,0-2.32-1.39,7.88,7.88,0,0,0-5.7-.88c-2.18.6-3.81,2.39-5.79,3.49a9.91,9.91,0,0,1-3.74,1.21,18.72,18.72,0,0,0-3.52.43A4.88,4.88,0,0,0,52.67,22.6Z"/><path d="M82.45,7.39s2.74,10.78-2,16.7-4.33-6.29-4.33-6.29Z"/><path d="M99.49,38.18s0,18.56-8.11,20S90.65,54,90.65,54,95.49,58.13,99.49,38.18Z"/><rect x="78.79" y="32.47" width="1.06" height="1.06" transform="translate(44.98 -45.75) rotate(43.85)"/><rect x="75.97" y="32.91" width="1.06" height="1.06" transform="translate(44.49 -43.67) rotate(43.85)"/><rect x="73.36" y="33.41" width="1.06" height="1.06" transform="translate(44.11 -41.72) rotate(43.85)"/><rect x="70.64" y="33.86" width="1.06" height="1.06" transform="translate(43.66 -39.71) rotate(43.85)"/><rect x="67.91" y="34.26" width="1.06" height="1.06" transform="translate(43.18 -37.71) rotate(43.85)"/><rect x="65.17" y="34.63" width="1.06" height="1.06" transform="translate(42.67 -35.71) rotate(43.85)"/><path d="M44.05,13.32a9.91,9.91,0,0,1-7.38-4.49,5.65,5.65,0,0,1-1-4.16,3.12,3.12,0,0,1,3.11-2.51c1.42.15,2.39,1.46,3.19,2.65a8.75,8.75,0,0,1,1.45-3.53A3,3,0,0,1,46.89.19a2.94,2.94,0,0,1,1.54,2.39A7.31,7.31,0,0,1,48,5.5c-.85,2.88-2.42,5.24-4,7.82"/><path d="M54.31,12.67a6.77,6.77,0,0,1-.93-4.35,3.9,3.9,0,0,1,.91-2.2,2.21,2.21,0,0,1,2.19-.71,1.55,1.55,0,0,1,1.06,1.88A5,5,0,0,1,60,6.16a1.74,1.74,0,0,1,1.95,1.43c0,.91-.86,1.55-1.64,2l-5.12,3"/></svg>