<svg id="Layer_1" data-name="Layer 1" xmlns="http://www.w3.org/2000/svg" viewBox="0 0 800 800"><path d="M94.5,799.5a305,305,0,0,1,610,0Z"/><path d="M399.5,496A304.26,304.26,0,0,1,704,799H95A304.25,304.25,0,0,1,399.5,496m0-1C231,495,94.27,631.51,94,800H705c-.27-168.49-137-305-305.5-305Z"/><ellipse cx="400" cy="299.5" rx="151.5" ry="181"/><path d="M400,119c40.3,0,78.2,18.75,106.71,52.8S551,251.25,551,299.5s-15.73,93.6-44.29,127.7S440.3,480,400,480s-78.2-18.75-106.71-52.8S249,347.75,249,299.5s15.73-93.6,44.29-127.7S359.7,119,400,119m0-1c-83.95,0-152,81.26-152,181.5S316.05,481,400,481s152-81.26,152-181.5S484,118,400,118Z"/></svg>