<svg id="Layer_1" data-name="Layer 1" xmlns="http://www.w3.org/2000/svg" viewBox="0 0 226 192"><path d="M183.79,15.08C186,18,203,34.18,198.19,48c-.83,2.41-10.73,7.53-14.85,4.34-2.88-2.23-8-11.31-6.4-8.05a17.83,17.83,0,0,1,1.16,14.05c-.41,1.22-.35,2.92.82,3.46,13.72,6.35,34.21,31.93,2.47,68.52-34.25,39.47-135,23-143.76-1.53-.15-.44-.62-.74-.67-1.2-.66-7.52-27.12-37.19,5-66,1.17-1.06,2.14-2.28,1.79-3.81C42.26,51.38,48.1,43.1,58.5,31.56L39.72,52.39c-3.08,1.25-13.84-10.87-12.06-13.68,5.63-8.87,10.09-28.11,27.16-25.8" style="fill:#c3996b"/><path d="M187,12.66c.14.18.55.66.89,1L189,15c.76.86,1.52,1.74,2.27,2.64,1.5,1.8,3,3.66,4.33,5.63a43.78,43.78,0,0,1,6.56,13.27,24.07,24.07,0,0,1,.81,8,19.23,19.23,0,0,1-.8,4.16l-.15.51a1.2,1.2,0,0,1-.06.17l-.13.3-.29.58c-.1.19-.22.38-.33.55l-.26.32c-.17.22-.35.43-.53.63-.34.34-.64.59-1,.89s-.6.46-.91.68a23.47,23.47,0,0,1-7.39,3.44,16.24,16.24,0,0,1-4.4.61,12.55,12.55,0,0,1-2.58-.28c-.47-.14-.95-.3-1.42-.48a7.77,7.77,0,0,1-1.41-.76,9.58,9.58,0,0,1-2-1.7c-.48-.52-.9-1-1.3-1.52-.79-1-1.49-2-2.16-2.93s-1.32-1.94-1.94-2.87l-.42-.64-.06-.08.07.09c1.81-2.44-4.3,5.48,7.05-3.26a4.36,4.36,0,0,0-.21-.78s0,0,0,0l.05.1.38.79c.15.3.28.6.41.91a22.48,22.48,0,0,1,1.83,8,21.29,21.29,0,0,1-.25,4.15,19.56,19.56,0,0,1-.42,2c-.08.34-.18.66-.28,1l-.18.59c0,.05,0,.16,0,0a1.92,1.92,0,0,0-.22-.55,2.5,2.5,0,0,0-.88-.86l1.41.72c.56.32,1.13.62,1.67,1a38.17,38.17,0,0,1,6,4.62,40.26,40.26,0,0,1,8.75,12.09,38,38,0,0,1,3.57,14.54,45,45,0,0,1-1.86,14.65c-2.77,9.41-8,17.55-13.88,24.78-.75.9-1.47,1.79-2.26,2.69s-1.64,1.82-2.52,2.65a54.79,54.79,0,0,1-5.48,4.76,68.53,68.53,0,0,1-12.26,7.37,100.47,100.47,0,0,1-26.83,8,152.32,152.32,0,0,1-27.6,1.94A173.36,173.36,0,0,1,82,155.35a129.27,129.27,0,0,1-26.75-7.58,62.55,62.55,0,0,1-12.63-6.93A30.17,30.17,0,0,1,37,135.55,19.65,19.65,0,0,1,34.68,132c-.18-.32-.32-.67-.47-1L34,130.5l-.11-.27s-.07-.19,0,0,.09.2.12.27c.16.31.24.37.17.3s-.23-.28-.5-.72a5,5,0,0,1-.43-.89,4.3,4.3,0,0,1-.17-.6A5,5,0,0,1,33,128a.16.16,0,0,1,0-.09s0,0,0-.12l-.08-.24-.07-.24-.12-.31c-.14-.39-.34-.85-.54-1.31-.42-.94-.9-1.92-1.4-2.92-1-2-2-4.08-3-6.21A68.2,68.2,0,0,1,23.15,103a50.21,50.21,0,0,1-1-7.28,43.2,43.2,0,0,1,.24-7.45,40.77,40.77,0,0,1,4.47-14.16,52.18,52.18,0,0,1,8.58-11.76c.79-.9,1.68-1.69,2.54-2.52l1.29-1.23a4.6,4.6,0,0,0,.58-.61c.09-.11,0,0-.05.24a1.69,1.69,0,0,0,0,.39s0,.08,0,.06l-.06-.3-.1-.61a13.09,13.09,0,0,1-.16-2.4,20.49,20.49,0,0,1,.24-2.27,24.8,24.8,0,0,1,2.89-7.51,55.4,55.4,0,0,1,4-6.07c2.82-3.78,5.84-7.23,8.89-10.63l6,5.39L42.71,55.08l-.65.73-.82.31a5.4,5.4,0,0,1-1.83.37,6.3,6.3,0,0,1-.76,0l-.6-.1a7.94,7.94,0,0,1-1.78-.57A14.89,14.89,0,0,1,34,54.47a27.54,27.54,0,0,1-3.35-2.86A34.68,34.68,0,0,1,25.3,45a17.67,17.67,0,0,1-1.12-2.18,11.81,11.81,0,0,1-.49-1.43,7.51,7.51,0,0,1-.18-.92,6,6,0,0,1-.06-1.17,3.78,3.78,0,0,1,.08-.76,4.14,4.14,0,0,1,.2-.83,6.27,6.27,0,0,1,.43-1l.18-.32.43-.7c.27-.48.55-1,.82-1.49,1.09-2.07,2.15-4.35,3.29-6.64a71.18,71.18,0,0,1,3.88-6.95,32.43,32.43,0,0,1,5.47-6.57,20.61,20.61,0,0,1,8-4.55,21.94,21.94,0,0,1,9.11-.6l-1.08,8a14.1,14.1,0,0,0-5.76.35,12.47,12.47,0,0,0-4.91,2.82c-3,2.7-5.36,6.77-7.51,11.11C35,33.36,34,35.63,32.72,38c-.31.59-.64,1.18-1,1.78l-.55.91-.07.12,0,.05s0-.05.06-.07a2.53,2.53,0,0,0,.24-.53,2.72,2.72,0,0,0,.1-.38c0-.12,0-.26,0-.29,0-.51,0-.17.12.11a9.27,9.27,0,0,0,.6,1.15,27.71,27.71,0,0,0,4.06,5,19.84,19.84,0,0,0,2.35,2,6.32,6.32,0,0,0,.93.57c.08,0,.14,0,0,0h-.14a1.23,1.23,0,0,0-.29,0,2.61,2.61,0,0,0-.91.22l-1.48,1L55.52,28.86l6,5.39c-3,3.3-5.85,6.63-8.41,10a45.9,45.9,0,0,0-3.43,5.18,17,17,0,0,0-2,5,6.1,6.1,0,0,0,0,2l0,.22v.12l.09.47a6.53,6.53,0,0,1,0,2.07,7.41,7.41,0,0,1-1.39,3.29,12.26,12.26,0,0,1-1.71,1.86l-1.15,1.1c-.76.73-1.55,1.44-2.24,2.22a43.82,43.82,0,0,0-7.28,10,32.75,32.75,0,0,0-3.62,11.4,34.54,34.54,0,0,0-.19,6,41.82,41.82,0,0,0,.83,6.06,61.55,61.55,0,0,0,4.07,11.95c.89,2,1.85,3.93,2.85,6,.5,1,1,2,1.51,3.17.25.56.5,1.13.74,1.79l.18.48.18.57.16.56a6.3,6.3,0,0,1,.15.71l.12.74s0-.28-.07-.4-.08-.29-.11-.4a5.35,5.35,0,0,0-.24-.51c-.13-.2-.13-.18,0,0a6,6,0,0,1,.64,1l.44,1a3,3,0,0,0,.24.52,12.21,12.21,0,0,0,1.38,2.1,22.42,22.42,0,0,0,4.19,3.88,54.35,54.35,0,0,0,11,6,120.87,120.87,0,0,0,25,7.09A165.33,165.33,0,0,0,109.62,150a145.32,145.32,0,0,0,26.15-1.83,98.14,98.14,0,0,0,12.66-2.93,81.38,81.38,0,0,0,12-4.52,59.56,59.56,0,0,0,10.82-6.49,45.56,45.56,0,0,0,4.7-4.07c.75-.71,1.43-1.48,2.12-2.24s1.38-1.64,2.08-2.46c5.43-6.67,10.07-14,12.38-21.94a36.93,36.93,0,0,0,1.54-12,33.29,33.29,0,0,0-.83-5.89,34.48,34.48,0,0,0-2-5.6,32.48,32.48,0,0,0-7-9.64,30.51,30.51,0,0,0-4.68-3.62c-.41-.26-.83-.48-1.25-.72l-1.59-.82a5.73,5.73,0,0,1-2.06-2,6.19,6.19,0,0,1-.78-2.13,7.92,7.92,0,0,1,.13-3.36c0-.13.06-.26.1-.39l.1-.32.1-.32c.06-.21.13-.42.18-.63.11-.43.19-.85.27-1.28a13.81,13.81,0,0,0,.15-2.57,14.68,14.68,0,0,0-1.19-5.11c-.09-.21-.18-.42-.28-.62l-.35-.73-.13-.28-.1-.23a3.27,3.27,0,0,1-.28-1c11.36-8.83,5.33-.77,7.18-3.18l.19.25.19.27.51.76c.63.95,1.22,1.85,1.83,2.73s1.23,1.72,1.84,2.49c.31.38.61.74.89,1s.55.57.56.5,0,0,.06,0a.31.31,0,0,1,.18.07,6.51,6.51,0,0,0,.76.06c.28,0,.69-.06,1-.07s.78-.13,1.21-.27a16,16,0,0,0,4.78-2.2l.44-.33.28-.26h0a.64.64,0,0,0-.13.18,1.36,1.36,0,0,0-.1.21l0,.11c0,.06,0,0,0,0l.08-.3a11,11,0,0,0,.47-2.44,16.13,16.13,0,0,0-.56-5.31A36,36,0,0,0,189,27.84c-1.2-1.73-2.51-3.41-3.89-5.06-.69-.83-1.4-1.65-2.13-2.48L181.85,19c-.4-.46-.74-.82-1.29-1.54Z"/><path d="M55.36,8.91a54.42,54.42,0,0,1,9.18,2,40.88,40.88,0,0,1,4.51,1.7c.73.33,1.45.67,2.14,1l1,.51.28.14.24.09a4.55,4.55,0,0,0,1.07.26c.12,0,.18,0,.08,0a2.16,2.16,0,0,0-1,.55l1.4-1.39.84-.81c.3-.28.56-.56.91-.84a20,20,0,0,1,4.5-3.08,18.69,18.69,0,0,1,5.31-1.59l1.33-.18c.44,0,.87,0,1.3-.06a19.67,19.67,0,0,1,2.55,0c.82.07,1.66.1,2.46.22l2.38.38c.81.11,1.54.34,2.31.51s1.53.35,2.28.56c1.46.45,3,.88,4.39,1.37,2.87,1,5.62,2.21,8.39,3.35.73.3,1.29.56,1.86.78a13,13,0,0,0,1.55.5,4.18,4.18,0,0,0,.48.08c.09,0,0,0-.29.06a1.48,1.48,0,0,0-.35.13,2.2,2.2,0,0,0-.48.28l-.09.08.07-.05.13-.1.28-.2,1.1-.8a38.28,38.28,0,0,1,8.81-4.14,46.87,46.87,0,0,1,9.32-2.06,38.44,38.44,0,0,1,19.11,2.63l2.21,1.09A18,18,0,0,1,159,13.13l2,1.35c.34.23.69.44,1,.69L163,16l1.85,1.58.47.39.11.1s.09.07.07.05l0,0-.14-.08a.61.61,0,0,0-.38,0l-.09,0-.05,0h0l.11-.07,1-.59c2.57-1.55,5.18-3,8-4.38a36.37,36.37,0,0,1,4.56-1.85,14.21,14.21,0,0,1,3-.63,7.35,7.35,0,0,1,2.27.11,6.2,6.2,0,0,1,1.62.59A5.44,5.44,0,0,1,187,12.67l-6.45,4.83A1.84,1.84,0,0,0,181,18a2.19,2.19,0,0,0,.44.31,2,2,0,0,0,.6.23l.2,0s0,0-.09,0a7,7,0,0,0-1.28.3,26.94,26.94,0,0,0-3.5,1.43c-2.43,1.15-4.88,2.54-7.29,4l-.9.55-.35.21c-.18.1-.35.2-.53.28a7.56,7.56,0,0,1-5.77.22,7.67,7.67,0,0,1-2-1.15l-1-.89L158,22.22l-.73-.63c-.26-.19-.53-.35-.8-.53L154.85,20a11.62,11.62,0,0,0-1.66-.91l-1.69-.85a30.32,30.32,0,0,0-15.05-2,38.22,38.22,0,0,0-7.67,1.68,30.71,30.71,0,0,0-6.94,3.22l-.67.49-.5.36a5.81,5.81,0,0,1-1,.55,6.8,6.8,0,0,1-.86.31,7.23,7.23,0,0,1-2.46.19,12.92,12.92,0,0,1-1.65-.27,21.77,21.77,0,0,1-2.61-.83c-.79-.3-1.54-.65-2.16-.9l-3.89-1.62c-.66-.26-1.33-.45-2-.68l-2-.71c-1.31-.45-2.62-.82-3.93-1.24-.65-.18-1.3-.31-2-.48a19.82,19.82,0,0,0-1.94-.42A22.13,22.13,0,0,0,87,15.5a10.54,10.54,0,0,0-3,.87,12.25,12.25,0,0,0-2.66,1.84c-.22.17-.46.43-.69.64s-.47.44-.73.7c-.51.51-1,1-1.7,1.67a5.83,5.83,0,0,1-3,1.4,8.56,8.56,0,0,1-2.1.08A12.36,12.36,0,0,1,69.94,22c-.25-.09-.5-.19-.76-.31l-.71-.34-.93-.49c-.61-.3-1.2-.58-1.79-.85a33.22,33.22,0,0,0-3.64-1.38,47.12,47.12,0,0,0-7.83-1.71Z"/><path d="M114.24,85.69s51.63-5.57,46.43,59.4c0,0-37,13.65-92.55,2.94C68.12,148,61,89.65,114.24,85.69Z" style="fill:none;stroke:#000;stroke-miterlimit:10;stroke-width:8px"/><path d="M87.29,94.89s-3.6-13-1.17-20.86L96,89.91Z" style="fill:#e6e7e8;stroke:#000;stroke-miterlimit:10;stroke-width:5px"/><path d="M138.81,91l9.87-15.88C151.11,83,147.52,96,147.52,96Z" style="fill:#e6e7e8;stroke:#000;stroke-miterlimit:10;stroke-width:5px"/><path d="M127.48,70.87c0,2.8-3.07,6.52-7.57,1.23-.55-.66-2.52,10.08,1.53,13.47,1.15,1-4.15,0-4.49,0s-6.59.12-5.23-.51c5.23-2.42,2.42-13.3,1.89-12.51-3.6,5.4-7.19,1-7.19-1.68,0-3.61,4.71-8.31,10.53-8.31S127.48,67.26,127.48,70.87Z" style="fill:#231f20"/><path d="M71.4,79.67A59.8,59.8,0,0,1,91.22,61.75a54.23,54.23,0,0,1,26.55-7.33,48.78,48.78,0,0,1,26.46,8.08,59.42,59.42,0,0,1,18.43,19.4c-7-5.43-14-10.37-21.51-13.92a55,55,0,0,0-23.4-5.56,64.39,64.39,0,0,0-23.8,5A118.64,118.64,0,0,0,71.4,79.67Z"/><path d="M77.34,134.65a85.71,85.71,0,0,0,9.17,3.52c3.11,1,6.25,1.9,9.42,2.65a99.94,99.94,0,0,0,19.29,2.57,85.57,85.57,0,0,0,19.36-1.54A84.06,84.06,0,0,0,144,139.4a93.45,93.45,0,0,0,9.18-3.48,67.18,67.18,0,0,1-18.29,7.46,75.61,75.61,0,0,1-9.81,1.69,87,87,0,0,1-10,.32,83.94,83.94,0,0,1-19.62-3.07A75,75,0,0,1,77.34,134.65Z"/><ellipse cx="79.95" cy="53.15" rx="10.68" ry="7.06" style="fill:#231f20;stroke:#000;stroke-miterlimit:10;stroke-width:5px"/><ellipse cx="150.35" cy="53.15" rx="10.68" ry="7.06" style="fill:#231f20;stroke:#000;stroke-miterlimit:10;stroke-width:5px"/><ellipse cx="148.75" cy="53.15" rx="5.36" ry="4.68" style="fill:#fff"/><path d="M132,53.67s22.68-18.6,35.1-5.76" style="fill:#231f20"/><path d="M132,53.67a28.26,28.26,0,0,1,7.15-7.07,31.73,31.73,0,0,1,9.15-4.5,20.25,20.25,0,0,1,10.58-.46,13.59,13.59,0,0,1,4.9,2.28,11.93,11.93,0,0,1,3.32,4,24.49,24.49,0,0,0-4.44-1.8,17.21,17.21,0,0,0-4.34-.58,29.3,29.3,0,0,0-8.61,1.36c-2.87.86-5.76,1.94-8.67,3.14S135.15,52.48,132,53.67Z"/><ellipse cx="81.48" cy="53.15" rx="5.36" ry="4.68" style="fill:#fff"/><path d="M62,49.07S82.78,36.45,96,54.75" style="fill:#231f20"/><path d="M62,49.07a20.84,20.84,0,0,1,8.39-5.34,22.28,22.28,0,0,1,10.19-1.2,20.13,20.13,0,0,1,5.11,1.32,18.89,18.89,0,0,1,4.53,2.67A17.7,17.7,0,0,1,96,54.75a51.21,51.21,0,0,0-7.85-4.92A26.25,26.25,0,0,0,80,47.49a37.11,37.11,0,0,0-8.68,0C68.34,47.86,65.29,48.42,62,49.07Z"/><circle cx="82.79" cy="53.24" r="2.61" style="fill:#231f20"/><circle cx="147.74" cy="52.14" r="2.61" style="fill:#231f20"/><path d="M170.16,34.82a11.74,11.74,0,0,1,6.14,1.23,11.06,11.06,0,0,1,5.93,8.22,10.64,10.64,0,0,1,0,3.09,7.85,7.85,0,0,1-.45,1.69,4.8,4.8,0,0,1-1,1.63c-.34-.15-.59-.28-.88-.39s-.48-.2-.75-.29c-.54-.19-.92-.35-1.39-.52a18.26,18.26,0,0,1-2.3-1.13,11.2,11.2,0,0,1-3.36-3.08,11.64,11.64,0,0,1-2-4.3A14.3,14.3,0,0,1,170.16,34.82Z"/><path d="M62,27.55a16,16,0,0,1-1,6.64,15.64,15.64,0,0,1-6.78,8.05,21,21,0,0,1-2.56,1.25c-.51.2-.92.37-1.49.58a5.67,5.67,0,0,0-.79.33c-.3.11-.57.26-.92.43A4.81,4.81,0,0,1,47.67,43a8,8,0,0,1-.25-1.9,12.37,12.37,0,0,1,.43-3.4,13.79,13.79,0,0,1,2.84-5.31,14,14,0,0,1,4.63-3.54A13.36,13.36,0,0,1,62,27.55Z"/><path d="M85.28,31.69c5.12.42,10.17,1.16,15.2,2q3.76.65,7.52,1.38l3.74.77c.61.11,1.31.29,1.73.32s1.17.08,1.78.09c1.22,0,2.48,0,3.67-.08a8,8,0,0,0,.81-.09c.2,0,.59-.13.88-.19l1.86-.41c2.5-.49,5-1,7.5-1.48,5-1,10.06-1.78,15.16-2.33-4.82,1.76-9.71,3.24-14.63,4.61-2.45.71-4.93,1.31-7.39,2-.62.17-1.24.31-1.86.46-.34.08-.56.15-1,.23s-.74.11-1.08.15c-1.36.12-2.65.15-4,.14-.66,0-1.32,0-2-.09s-1.38-.27-2-.4l-3.73-.84q-3.72-.87-7.43-1.83C95,34.81,90.12,33.41,85.28,31.69Z"/><polygon points="49.6 139.54 40.27 165.06 62.05 149.25 49.6 139.54" style="fill:#fff;stroke:#000;stroke-miterlimit:10;stroke-width:4px"/><polygon points="74.15 151.4 79.59 178.72 91.43 153.84 74.15 151.4" style="fill:#fff;stroke:#000;stroke-miterlimit:10;stroke-width:4px"/><polygon points="136.32 151.58 155.01 175.67 156 146.26 136.32 151.58" style="fill:#fff;stroke:#000;stroke-miterlimit:10;stroke-width:4px"/><polygon points="164.34 145.51 187.05 161.95 175.34 136.79 164.34 145.51" style="fill:#fff;stroke:#000;stroke-miterlimit:10;stroke-width:4px"/><polygon points="105.85 155.22 117.88 179.74 122.98 155.22 105.85 155.22" style="fill:#fff;stroke:#000;stroke-miterlimit:10;stroke-width:4px"/><polygon points="33.79 126.1 16.46 147.02 42.27 139.41 33.79 126.1" style="fill:#fff;stroke:#000;stroke-miterlimit:10;stroke-width:4px"/><polygon points="180.82 132.39 207.37 141.43 188.77 120.82 180.82 132.39" style="fill:#fff;stroke:#000;stroke-miterlimit:10;stroke-width:4px"/><path d="M115.28,154c92.8-4.2,82.11-68.43,82.11-68.43s-19.46,42-28.52,39.11c0,0,.54-39-37.8-45,0,0,9.75-2,11.22-14.66,0,0-27-14.3-51.66,1.63,0,0,9.76,16.11,15.79,14s-47.71-.46-52.84,44.07c0,0-26.73-15.75-24.84-42,0,0-17,76,86.54,71.36" style="fill:#231f20;opacity:0.22"/></svg>