<svg id="Layer_1" data-name="Layer 1" xmlns="http://www.w3.org/2000/svg" viewBox="0 0 720.38 686"><path d="M362.45,686q-2.11-8.85-4.23-17.71Q354.59,653,351,637.7c-2.57-10.94-5.09-21.9-7.65-32.85q-4.72-20.21-9.47-40.39c-1-4.14-1.84-8.3-2.73-12.35-46.45-6.24-87.36-24.43-122.73-55.13L82.8,559.52l-.29-.33,5.88-7.4c4.9-6.15,9.78-12.32,14.7-18.45,4.4-5.49,8.87-10.92,13.28-16.4,3.7-4.59,7.37-9.22,11.06-13.83l11.19-14c4.28-5.38,8.53-10.8,12.84-16.16,3.83-4.78,7.71-9.51,11.57-14.26,1.86-2.29,3.77-4.54,5.52-6.92a2.41,2.41,0,0,0-.16-2.06c-4.2-7.84-8.73-15.52-12.67-23.5a164.28,164.28,0,0,1-12-33.06c-1.83-7.31-3.35-14.72-4.68-22.14a130.88,130.88,0,0,1-1.35-13.45c-.47-6.35-.79-12.72-1.18-19.28L0,309.45V309c2.34-.54,4.68-1.12,7-1.62,8.55-1.79,17.1-3.53,25.65-5.32,10.67-2.22,21.34-4.43,32-6.71C74.46,293.25,84.2,291.05,94,289s19.43-4,29.14-6.05c7.31-1.53,14.62-3.07,21.9-4.75a3.77,3.77,0,0,0,2.2-2c3.89-9.13,7.3-18.48,11.56-27.43a180.78,180.78,0,0,1,21.71-34.42c5.6-7.09,11.77-13.74,17.85-20.78l-82-102.26c1.08.42,1.57.57,2,.8q27,13.53,54.09,27.07,36.89,18.38,73.78,36.69a3,3,0,0,0,3.21-.07c10.21-5.4,20.54-10.59,31.55-14.17,8.69-2.83,17.42-5.6,26.26-7.86,6.55-1.69,13.32-2.53,20-3.73a14,14,0,0,0,3.3-.52,3.72,3.72,0,0,0,1.9-2.1c2.22-9,4.32-18.06,6.46-27.1,2.41-10.19,4.85-20.38,7.23-30.58,3.32-14.22,6.58-28.45,9.9-42.66,2-8.37,4-16.71,6-25.07a18.56,18.56,0,0,0,.23-2h.52Q377.9,64.68,393,129.25c7.69,1.54,15.38,2.95,23,4.65,5,1.1,9.88,2.49,14.75,4a231.64,231.64,0,0,1,40.83,17c1.73.91,3.42,1.94,5.19,2.77a2.33,2.33,0,0,0,2,.06q11.81-8.43,23.52-17,11.13-8.1,22.27-16.2l26-18.85q11-8,22-15.88Q580,84.42,587.39,79.1a3.49,3.49,0,0,1,1.83-.69L525.11,194.66c2.25,2.46,4.47,4.92,6.72,7.36a190.63,190.63,0,0,1,22.77,30.26,183.94,183.94,0,0,1,10.19,18.37c4,8.62,7.24,17.57,10.88,26.35a2.93,2.93,0,0,0,1.7,1.6q16.56,3.69,33.17,7.21c9.22,1.95,18.48,3.78,27.71,5.7,8.89,1.86,17.77,3.76,26.66,5.64L693,303.07,716.15,308a14.11,14.11,0,0,1,4.23,1.43l-134.45,28.4c-.18,20.9-2.69,41.46-8.75,61.54a208.33,208.33,0,0,1-26.41,55.81L636.46,561a19.11,19.11,0,0,1-1.88-.62l-30.41-15q-12.84-6.35-25.68-12.69-12.29-6.06-24.57-12.08-12.48-6.12-24.95-12.25c-5.49-2.69-11-5.29-16.46-8a2.13,2.13,0,0,0-2.77.3,184.62,184.62,0,0,1-29.81,21.12c-7.93,4.48-16,8.71-24.29,12.51A201.93,201.93,0,0,1,416,547.56c-6.81,1.55-13.74,2.57-20.58,4a3,3,0,0,0-1.66,2c-2.08,8.62-4,17.28-6.06,25.91-2.51,10.6-5.09,21.19-7.6,31.79q-4.77,20.19-9.48,40.39-3.84,16.43-7.65,32.85a8.19,8.19,0,0,0-.06,1.49Zm188-345.49,1-.06c-.77-8.15-1.44-16.31-2.32-24.45a142.84,142.84,0,0,0-5.93-26.56,174.36,174.36,0,0,0-16.68-37.29A185.36,185.36,0,0,0,460,186.83a195.43,195.43,0,0,0-33.32-15.35,167.9,167.9,0,0,0-37.86-9c-8.69-.91-17.41-1.56-26.13-2.11a63.59,63.59,0,0,0-9.55.4c-7.57.64-15.22.94-22.68,2.23a256.46,256.46,0,0,0-27.55,6.25,181.34,181.34,0,0,0-41,18,192.68,192.68,0,0,0-34.48,25.84c-4.51,4.2-8.55,8.9-12.69,13.48a160.57,160.57,0,0,0-16.09,21.57A170.86,170.86,0,0,0,180.89,285c-3.09,9.07-5.77,18.27-6.86,27.84-1,8.53-2,17.06-2.45,25.63a99.53,99.53,0,0,0,.81,16.53q1.31,11.37,3.38,22.65a138.31,138.31,0,0,0,12.71,37.17,277.65,277.65,0,0,0,14,24.18,152.12,152.12,0,0,0,19.76,24.18,149.31,149.31,0,0,0,11.39,10.53c5.51,4.56,11.15,9,16.94,13.18a176.12,176.12,0,0,0,31.35,17.48,156.84,156.84,0,0,0,29.87,10.25c8.46,1.88,17,3.56,25.57,4.67,8.11,1.05,16.32,1.3,24.49,1.77a55.77,55.77,0,0,0,6.56-.39c4.51-.29,9-.43,13.53-.89a132.91,132.91,0,0,0,16.46-2.23c9.57-2.24,19.12-4.71,28.46-7.73a170.24,170.24,0,0,0,38.76-18.52c13.22-8.39,25.57-17.95,36.12-29.64,4.06-4.5,8.14-9,12-13.72a159,159,0,0,0,18.85-29.52,174.61,174.61,0,0,0,17.83-61.95C550.85,351.2,550.44,345.83,550.44,340.51Z"/><path d="M296.45,383.87q39,23.06,56.32,23.05,9.44,0,15.72-4.84t6.28-11.66q0-7.34-5.23-10.74t-39.3-18.34q-27.25-12-39.3-28.42t-12.05-40.74q0-34.83,24-57.37T364,212.28q36.15,0,88.55,28.82l-29.34,54.23q-34.07-21-55.8-21-18.85,0-18.86,15.19,0,7.35,6.94,12.71t25.28,11.92q34.32,12,49.9,28.81t15.59,42.44q0,36.69-24.62,60.25t-62.88,23.58q-41.39,0-88.54-29.08Z"/><polygon points="604.52 450.63 604.52 487.37 531.9 487.37 531.9 560 495.15 560 495.15 487.37 422.52 487.37 422.52 450.63 495.15 450.63 495.15 378 531.9 378 531.9 450.63 604.52 450.63" style="fill:#ff6700;stroke:#000;stroke-miterlimit:10;stroke-width:7px"/></svg>